<?xml version="1.0" encoding="utf-8" standalone="no"?>
<!DOCTYPE svg PUBLIC "-//W3C//DTD SVG 1.1//EN"
  "http://www.w3.org/Graphics/SVG/1.1/DTD/svg11.dtd">
<!-- Created with matplotlib (https://matplotlib.org/) -->
<svg height="144pt" version="1.1" viewBox="0 0 360 144" width="360pt" xmlns="http://www.w3.org/2000/svg" xmlns:xlink="http://www.w3.org/1999/xlink">
 <metadata>
  <rdf:RDF xmlns:cc="http://creativecommons.org/ns#" xmlns:dc="http://purl.org/dc/elements/1.1/" xmlns:rdf="http://www.w3.org/1999/02/22-rdf-syntax-ns#">
   <cc:Work>
    <dc:type rdf:resource="http://purl.org/dc/dcmitype/StillImage"/>
    <dc:date>2023-03-21T19:43:24.875987</dc:date>
    <dc:format>image/svg+xml</dc:format>
    <dc:creator>
     <cc:Agent>
      <dc:title>Matplotlib v3.3.2, https://matplotlib.org/</dc:title>
     </cc:Agent>
    </dc:creator>
   </cc:Work>
  </rdf:RDF>
 </metadata>
 <defs>
  <style type="text/css">*{stroke-linecap:butt;stroke-linejoin:round;}</style>
 </defs>
 <g id="figure_1">
  <g id="patch_1">
   <path d="M 0 144 
L 360 144 
L 360 0 
L 0 0 
z
" style="fill:#ffffff;"/>
  </g>
  <g id="axes_1">
   <g id="patch_2">
    <path d="M 45 128.16 
L 324 128.16 
L 324 17.28 
L 45 17.28 
z
" style="fill:#ffffff;"/>
   </g>
   <g id="matplotlib.axis_1">
    <g id="xtick_1">
     <g id="line2d_1">
      <defs>
       <path d="M 0 0 
L 0 3.5 
" id="m0ea133efc5" style="stroke:#000000;stroke-width:0.8;"/>
      </defs>
      <g>
       <use style="stroke:#000000;stroke-width:0.8;" x="45" xlink:href="#m0ea133efc5" y="128.16"/>
      </g>
     </g>
     <g id="text_1">
      <!-- −5 -->
      <g transform="translate(37.628906 142.758438)scale(0.1 -0.1)">
       <defs>
        <path d="M 10.59375 35.5 
L 73.1875 35.5 
L 73.1875 27.203125 
L 10.59375 27.203125 
z
" id="DejaVuSans-8722"/>
        <path d="M 10.796875 72.90625 
L 49.515625 72.90625 
L 49.515625 64.59375 
L 19.828125 64.59375 
L 19.828125 46.734375 
Q 21.96875 47.46875 24.109375 47.828125 
Q 26.265625 48.1875 28.421875 48.1875 
Q 40.625 48.1875 47.75 41.5 
Q 54.890625 34.8125 54.890625 23.390625 
Q 54.890625 11.625 47.5625 5.09375 
Q 40.234375 -1.421875 26.90625 -1.421875 
Q 22.3125 -1.421875 17.546875 -0.640625 
Q 12.796875 0.140625 7.71875 1.703125 
L 7.71875 11.625 
Q 12.109375 9.234375 16.796875 8.0625 
Q 21.484375 6.890625 26.703125 6.890625 
Q 35.15625 6.890625 40.078125 11.328125 
Q 45.015625 15.765625 45.015625 23.390625 
Q 45.015625 31 40.078125 35.4375 
Q 35.15625 39.890625 26.703125 39.890625 
Q 22.75 39.890625 18.8125 39.015625 
Q 14.890625 38.140625 10.796875 36.28125 
z
" id="DejaVuSans-53"/>
       </defs>
       <use xlink:href="#DejaVuSans-8722"/>
       <use x="83.789062" xlink:href="#DejaVuSans-53"/>
      </g>
     </g>
    </g>
    <g id="xtick_2">
     <g id="line2d_2">
      <g>
       <use style="stroke:#000000;stroke-width:0.8;" x="84.857143" xlink:href="#m0ea133efc5" y="128.16"/>
      </g>
     </g>
     <g id="text_2">
      <!-- −4 -->
      <g transform="translate(77.486049 142.758438)scale(0.1 -0.1)">
       <defs>
        <path d="M 37.796875 64.3125 
L 12.890625 25.390625 
L 37.796875 25.390625 
z
M 35.203125 72.90625 
L 47.609375 72.90625 
L 47.609375 25.390625 
L 58.015625 25.390625 
L 58.015625 17.1875 
L 47.609375 17.1875 
L 47.609375 0 
L 37.796875 0 
L 37.796875 17.1875 
L 4.890625 17.1875 
L 4.890625 26.703125 
z
" id="DejaVuSans-52"/>
       </defs>
       <use xlink:href="#DejaVuSans-8722"/>
       <use x="83.789062" xlink:href="#DejaVuSans-52"/>
      </g>
     </g>
    </g>
    <g id="xtick_3">
     <g id="line2d_3">
      <g>
       <use style="stroke:#000000;stroke-width:0.8;" x="124.714286" xlink:href="#m0ea133efc5" y="128.16"/>
      </g>
     </g>
     <g id="text_3">
      <!-- −3 -->
      <g transform="translate(117.343192 142.758438)scale(0.1 -0.1)">
       <defs>
        <path d="M 40.578125 39.3125 
Q 47.65625 37.796875 51.625 33 
Q 55.609375 28.21875 55.609375 21.1875 
Q 55.609375 10.40625 48.1875 4.484375 
Q 40.765625 -1.421875 27.09375 -1.421875 
Q 22.515625 -1.421875 17.65625 -0.515625 
Q 12.796875 0.390625 7.625 2.203125 
L 7.625 11.71875 
Q 11.71875 9.328125 16.59375 8.109375 
Q 21.484375 6.890625 26.8125 6.890625 
Q 36.078125 6.890625 40.9375 10.546875 
Q 45.796875 14.203125 45.796875 21.1875 
Q 45.796875 27.640625 41.28125 31.265625 
Q 36.765625 34.90625 28.71875 34.90625 
L 20.21875 34.90625 
L 20.21875 43.015625 
L 29.109375 43.015625 
Q 36.375 43.015625 40.234375 45.921875 
Q 44.09375 48.828125 44.09375 54.296875 
Q 44.09375 59.90625 40.109375 62.90625 
Q 36.140625 65.921875 28.71875 65.921875 
Q 24.65625 65.921875 20.015625 65.03125 
Q 15.375 64.15625 9.8125 62.3125 
L 9.8125 71.09375 
Q 15.4375 72.65625 20.34375 73.4375 
Q 25.25 74.21875 29.59375 74.21875 
Q 40.828125 74.21875 47.359375 69.109375 
Q 53.90625 64.015625 53.90625 55.328125 
Q 53.90625 49.265625 50.4375 45.09375 
Q 46.96875 40.921875 40.578125 39.3125 
z
" id="DejaVuSans-51"/>
       </defs>
       <use xlink:href="#DejaVuSans-8722"/>
       <use x="83.789062" xlink:href="#DejaVuSans-51"/>
      </g>
     </g>
    </g>
    <g id="xtick_4">
     <g id="line2d_4">
      <g>
       <use style="stroke:#000000;stroke-width:0.8;" x="164.571429" xlink:href="#m0ea133efc5" y="128.16"/>
      </g>
     </g>
     <g id="text_4">
      <!-- −2 -->
      <g transform="translate(157.200335 142.758438)scale(0.1 -0.1)">
       <defs>
        <path d="M 19.1875 8.296875 
L 53.609375 8.296875 
L 53.609375 0 
L 7.328125 0 
L 7.328125 8.296875 
Q 12.9375 14.109375 22.625 23.890625 
Q 32.328125 33.6875 34.8125 36.53125 
Q 39.546875 41.84375 41.421875 45.53125 
Q 43.3125 49.21875 43.3125 52.78125 
Q 43.3125 58.59375 39.234375 62.25 
Q 35.15625 65.921875 28.609375 65.921875 
Q 23.96875 65.921875 18.8125 64.3125 
Q 13.671875 62.703125 7.8125 59.421875 
L 7.8125 69.390625 
Q 13.765625 71.78125 18.9375 73 
Q 24.125 74.21875 28.421875 74.21875 
Q 39.75 74.21875 46.484375 68.546875 
Q 53.21875 62.890625 53.21875 53.421875 
Q 53.21875 48.921875 51.53125 44.890625 
Q 49.859375 40.875 45.40625 35.40625 
Q 44.1875 33.984375 37.640625 27.21875 
Q 31.109375 20.453125 19.1875 8.296875 
z
" id="DejaVuSans-50"/>
       </defs>
       <use xlink:href="#DejaVuSans-8722"/>
       <use x="83.789062" xlink:href="#DejaVuSans-50"/>
      </g>
     </g>
    </g>
    <g id="xtick_5">
     <g id="line2d_5">
      <g>
       <use style="stroke:#000000;stroke-width:0.8;" x="204.428571" xlink:href="#m0ea133efc5" y="128.16"/>
      </g>
     </g>
     <g id="text_5">
      <!-- −1 -->
      <g transform="translate(197.057478 142.758438)scale(0.1 -0.1)">
       <defs>
        <path d="M 12.40625 8.296875 
L 28.515625 8.296875 
L 28.515625 63.921875 
L 10.984375 60.40625 
L 10.984375 69.390625 
L 28.421875 72.90625 
L 38.28125 72.90625 
L 38.28125 8.296875 
L 54.390625 8.296875 
L 54.390625 0 
L 12.40625 0 
z
" id="DejaVuSans-49"/>
       </defs>
       <use xlink:href="#DejaVuSans-8722"/>
       <use x="83.789062" xlink:href="#DejaVuSans-49"/>
      </g>
     </g>
    </g>
    <g id="xtick_6">
     <g id="line2d_6">
      <g>
       <use style="stroke:#000000;stroke-width:0.8;" x="244.285714" xlink:href="#m0ea133efc5" y="128.16"/>
      </g>
     </g>
     <g id="text_6">
      <!-- 0 -->
      <g transform="translate(241.104464 142.758438)scale(0.1 -0.1)">
       <defs>
        <path d="M 31.78125 66.40625 
Q 24.171875 66.40625 20.328125 58.90625 
Q 16.5 51.421875 16.5 36.375 
Q 16.5 21.390625 20.328125 13.890625 
Q 24.171875 6.390625 31.78125 6.390625 
Q 39.453125 6.390625 43.28125 13.890625 
Q 47.125 21.390625 47.125 36.375 
Q 47.125 51.421875 43.28125 58.90625 
Q 39.453125 66.40625 31.78125 66.40625 
z
M 31.78125 74.21875 
Q 44.046875 74.21875 50.515625 64.515625 
Q 56.984375 54.828125 56.984375 36.375 
Q 56.984375 17.96875 50.515625 8.265625 
Q 44.046875 -1.421875 31.78125 -1.421875 
Q 19.53125 -1.421875 13.0625 8.265625 
Q 6.59375 17.96875 6.59375 36.375 
Q 6.59375 54.828125 13.0625 64.515625 
Q 19.53125 74.21875 31.78125 74.21875 
z
" id="DejaVuSans-48"/>
       </defs>
       <use xlink:href="#DejaVuSans-48"/>
      </g>
     </g>
    </g>
    <g id="xtick_7">
     <g id="line2d_7">
      <g>
       <use style="stroke:#000000;stroke-width:0.8;" x="284.142857" xlink:href="#m0ea133efc5" y="128.16"/>
      </g>
     </g>
     <g id="text_7">
      <!-- 1 -->
      <g transform="translate(280.961607 142.758438)scale(0.1 -0.1)">
       <use xlink:href="#DejaVuSans-49"/>
      </g>
     </g>
    </g>
    <g id="xtick_8">
     <g id="line2d_8">
      <g>
       <use style="stroke:#000000;stroke-width:0.8;" x="324" xlink:href="#m0ea133efc5" y="128.16"/>
      </g>
     </g>
     <g id="text_8">
      <!-- 2 -->
      <g transform="translate(320.81875 142.758438)scale(0.1 -0.1)">
       <use xlink:href="#DejaVuSans-50"/>
      </g>
     </g>
    </g>
   </g>
   <g id="matplotlib.axis_2">
    <g id="ytick_1">
     <g id="line2d_9">
      <defs>
       <path d="M 0 0 
L -3.5 0 
" id="m273f25d691" style="stroke:#000000;stroke-width:0.8;"/>
      </defs>
      <g>
       <use style="stroke:#000000;stroke-width:0.8;" x="45" xlink:href="#m273f25d691" y="118.08"/>
      </g>
     </g>
     <g id="text_9">
      <!-- 0.00 -->
      <g transform="translate(15.734375 121.879219)scale(0.1 -0.1)">
       <defs>
        <path d="M 10.6875 12.40625 
L 21 12.40625 
L 21 0 
L 10.6875 0 
z
" id="DejaVuSans-46"/>
       </defs>
       <use xlink:href="#DejaVuSans-48"/>
       <use x="63.623047" xlink:href="#DejaVuSans-46"/>
       <use x="95.410156" xlink:href="#DejaVuSans-48"/>
       <use x="159.033203" xlink:href="#DejaVuSans-48"/>
      </g>
     </g>
    </g>
    <g id="ytick_2">
     <g id="line2d_10">
      <g>
       <use style="stroke:#000000;stroke-width:0.8;" x="45" xlink:href="#m273f25d691" y="92.88"/>
      </g>
     </g>
     <g id="text_10">
      <!-- 0.25 -->
      <g transform="translate(15.734375 96.679219)scale(0.1 -0.1)">
       <use xlink:href="#DejaVuSans-48"/>
       <use x="63.623047" xlink:href="#DejaVuSans-46"/>
       <use x="95.410156" xlink:href="#DejaVuSans-50"/>
       <use x="159.033203" xlink:href="#DejaVuSans-53"/>
      </g>
     </g>
    </g>
    <g id="ytick_3">
     <g id="line2d_11">
      <g>
       <use style="stroke:#000000;stroke-width:0.8;" x="45" xlink:href="#m273f25d691" y="67.68"/>
      </g>
     </g>
     <g id="text_11">
      <!-- 0.50 -->
      <g transform="translate(15.734375 71.479219)scale(0.1 -0.1)">
       <use xlink:href="#DejaVuSans-48"/>
       <use x="63.623047" xlink:href="#DejaVuSans-46"/>
       <use x="95.410156" xlink:href="#DejaVuSans-53"/>
       <use x="159.033203" xlink:href="#DejaVuSans-48"/>
      </g>
     </g>
    </g>
    <g id="ytick_4">
     <g id="line2d_12">
      <g>
       <use style="stroke:#000000;stroke-width:0.8;" x="45" xlink:href="#m273f25d691" y="42.48"/>
      </g>
     </g>
     <g id="text_12">
      <!-- 0.75 -->
      <g transform="translate(15.734375 46.279219)scale(0.1 -0.1)">
       <defs>
        <path d="M 8.203125 72.90625 
L 55.078125 72.90625 
L 55.078125 68.703125 
L 28.609375 0 
L 18.3125 0 
L 43.21875 64.59375 
L 8.203125 64.59375 
z
" id="DejaVuSans-55"/>
       </defs>
       <use xlink:href="#DejaVuSans-48"/>
       <use x="63.623047" xlink:href="#DejaVuSans-46"/>
       <use x="95.410156" xlink:href="#DejaVuSans-55"/>
       <use x="159.033203" xlink:href="#DejaVuSans-53"/>
      </g>
     </g>
    </g>
    <g id="ytick_5">
     <g id="line2d_13">
      <g>
       <use style="stroke:#000000;stroke-width:0.8;" x="45" xlink:href="#m273f25d691" y="17.28"/>
      </g>
     </g>
     <g id="text_13">
      <!-- 1.00 -->
      <g transform="translate(15.734375 21.079219)scale(0.1 -0.1)">
       <use xlink:href="#DejaVuSans-49"/>
       <use x="63.623047" xlink:href="#DejaVuSans-46"/>
       <use x="95.410156" xlink:href="#DejaVuSans-48"/>
       <use x="159.033203" xlink:href="#DejaVuSans-48"/>
      </g>
     </g>
    </g>
   </g>
   <g id="line2d_14">
    <path clip-path="url(#p9caaa6d361)" d="M 200.965423 -1 
L 204.03 15.25392 
L 207.218571 30.89808 
L 210.008571 43.52832 
L 212.798571 55.17072 
L 215.588571 65.82528 
L 217.98 74.17152 
L 220.371429 81.792 
L 222.762857 88.68672 
L 225.154286 94.85568 
L 227.147143 99.44208 
L 229.14 103.52448 
L 231.132857 107.10288 
L 233.125714 110.17728 
L 234.72 112.27392 
L 236.314286 114.048 
L 237.908571 115.49952 
L 239.502857 116.62848 
L 241.097143 117.43488 
L 242.292857 117.828 
L 243.488571 118.03968 
L 244.684286 118.06992 
L 245.88 117.91872 
L 247.075714 117.58608 
L 248.271429 117.072 
L 249.865714 116.10432 
L 251.46 114.81408 
L 253.054286 113.20128 
L 254.648571 111.26592 
L 256.242857 109.008 
L 258.235714 105.732 
L 260.228571 101.952 
L 262.221429 97.668 
L 264.214286 92.88 
L 266.605714 86.46912 
L 268.997143 79.33248 
L 271.388571 71.47008 
L 273.78 62.88192 
L 276.57 51.94512 
L 279.36 40.02048 
L 282.15 27.108 
L 284.94 13.20768 
L 287.606006 -1 
L 287.606006 -1 
" style="fill:none;stroke:#1f77b4;stroke-dasharray:5.55,2.4;stroke-dashoffset:0;stroke-width:1.5;"/>
   </g>
   <g id="line2d_15">
    <path clip-path="url(#p9caaa6d361)" d="M 196.898877 145 
L 198.848571 136.419955 
L 200.442857 130.2768 
L 202.037143 124.875533 
L 203.631429 120.177446 
L 205.225714 116.143834 
L 206.82 112.735987 
L 208.414286 109.9152 
L 210.008571 107.642765 
L 211.204286 106.27501 
L 212.4 105.1776 
L 213.595714 104.334206 
L 214.791429 103.728499 
L 215.987143 103.344149 
L 217.182857 103.164826 
L 218.378571 103.1742 
L 219.972857 103.452005 
L 221.567143 103.997534 
L 223.161429 104.772082 
L 225.154286 106.003354 
L 227.545714 107.76695 
L 231.531429 111.061094 
L 235.517143 114.274598 
L 237.908571 115.912397 
L 239.901429 116.994485 
L 241.495714 117.620654 
L 243.09 117.992002 
L 244.285714 118.08 
L 245.481429 117.986558 
L 246.677143 117.695347 
L 247.872857 117.190037 
L 249.068571 116.454298 
L 250.264286 115.4718 
L 251.46 114.226214 
L 252.655714 112.701211 
L 253.851429 110.880461 
L 255.445714 107.964518 
L 257.04 104.455066 
L 258.634286 100.313395 
L 260.228571 95.5008 
L 261.822857 89.978573 
L 263.417143 83.708006 
L 265.011429 76.650394 
L 267.004286 66.662626 
L 268.997143 55.309018 
L 270.99 42.51397 
L 272.982857 28.201882 
L 274.975714 12.297154 
L 276.500563 -1 
L 276.500563 -1 
" style="fill:none;stroke:#ff7f0e;stroke-dasharray:1.5,2.475;stroke-dashoffset:0;stroke-width:1.5;"/>
   </g>
   <g id="line2d_16">
    <path clip-path="url(#p9caaa6d361)" d="M 45 101.100374 
L 53.768571 98.743018 
L 62.537143 96.151578 
L 71.305714 93.328476 
L 80.472857 90.142094 
L 90.437143 86.4384 
L 102.792857 81.590171 
L 125.91 72.46383 
L 133.482857 69.750593 
L 139.461429 67.825201 
L 145.041429 66.263752 
L 149.824286 65.152753 
L 154.208571 64.355562 
L 158.194286 63.843463 
L 162.18 63.560942 
L 165.767143 63.525214 
L 169.354286 63.717101 
L 172.542857 64.094705 
L 175.731429 64.681271 
L 178.92 65.489745 
L 182.108571 66.532176 
L 185.297143 67.819347 
L 188.485714 69.360331 
L 191.674286 71.16198 
L 194.862857 73.228317 
L 198.051429 75.559838 
L 201.24 78.152695 
L 204.827143 81.370423 
L 208.414286 84.8844 
L 212.4 89.09289 
L 217.581429 94.925637 
L 229.14 108.126042 
L 232.328571 111.359297 
L 234.72 113.512776 
L 237.111429 115.352074 
L 239.104286 116.584147 
L 240.698571 117.333793 
L 242.292857 117.84029 
L 243.887143 118.07002 
L 245.082857 118.038865 
L 246.278571 117.81508 
L 247.474286 117.38115 
L 248.67 116.718498 
L 249.865714 115.807427 
L 251.061429 114.627065 
L 252.257143 113.155304 
L 253.452857 111.368742 
L 254.648571 109.242615 
L 255.844286 106.75073 
L 257.438571 102.811176 
L 259.032857 98.101957 
L 260.627143 92.547756 
L 262.221429 86.067612 
L 263.815714 78.574552 
L 265.41 69.975207 
L 267.004286 60.169396 
L 268.598571 49.049688 
L 270.192857 36.500947 
L 271.787143 22.399837 
L 273.381429 6.614306 
L 274.091014 -1 
L 274.091014 -1 
" style="fill:none;stroke:#2ca02c;stroke-linecap:square;stroke-width:1.5;"/>
   </g>
   <g id="patch_3">
    <path d="M 45 128.16 
L 45 17.28 
" style="fill:none;stroke:#000000;stroke-linecap:square;stroke-linejoin:miter;stroke-width:0.8;"/>
   </g>
   <g id="patch_4">
    <path d="M 324 128.16 
L 324 17.28 
" style="fill:none;stroke:#000000;stroke-linecap:square;stroke-linejoin:miter;stroke-width:0.8;"/>
   </g>
   <g id="patch_5">
    <path d="M 45 128.16 
L 324 128.16 
" style="fill:none;stroke:#000000;stroke-linecap:square;stroke-linejoin:miter;stroke-width:0.8;"/>
   </g>
   <g id="patch_6">
    <path d="M 45 17.28 
L 324 17.28 
" style="fill:none;stroke:#000000;stroke-linecap:square;stroke-linejoin:miter;stroke-width:0.8;"/>
   </g>
  </g>
 </g>
 <defs>
  <clipPath id="p9caaa6d361">
   <rect height="110.88" width="279" x="45" y="17.28"/>
  </clipPath>
 </defs>
</svg>
